<svg width="24" height="24" viewBox="0 0 24 24" fill="none" xmlns="http://www.w3.org/2000/svg">
<path fill-rule="evenodd" clip-rule="evenodd" d="M5.88196 18.1546C7.72201 19.557 9.7614 20.2583 12.0001 20.2583C14.2389 20.2583 16.2782 19.557 18.1183 18.1546C19.7841 16.885 21.0352 15.2241 21.8715 13.1718C22.0431 12.7507 22.0431 12.2791 21.8715 11.858C21.0352 9.80567 19.7841 8.14471 18.1183 6.8751C16.2782 5.47269 14.2389 4.77148 12.0001 4.77148C9.7614 4.77148 7.72201 5.47269 5.88196 6.8751C4.21616 8.14471 2.96507 9.80567 2.1287 11.858C1.9571 12.2791 1.9571 12.7507 2.1287 13.1718C2.96507 15.2241 4.21616 16.885 5.88196 18.1546ZM16.7728 16.6576C15.3237 17.6814 13.7328 18.1934 12.0001 18.1934C10.2674 18.1934 8.67654 17.6814 7.2275 16.6576C6.00615 15.7946 5.02718 14.678 4.29059 13.3077C4.02447 12.8126 4.02447 12.2171 4.29059 11.7221C5.02718 10.3518 6.00615 9.23513 7.2275 8.37216C8.67654 7.34831 10.2674 6.83639 12.0001 6.83639C13.7328 6.83639 15.3237 7.34831 16.7728 8.37216C17.9941 9.23513 18.9731 10.3518 19.7097 11.7221C19.9758 12.2171 19.9758 12.8126 19.7097 13.3077C18.9731 14.678 17.9941 15.7946 16.7728 16.6576ZM13.7952 12.5162C13.7952 13.5878 12.9541 14.3879 12.0001 14.3879C11.0462 14.3879 10.205 13.5878 10.205 12.5162C10.205 11.4447 11.0462 10.6445 12.0001 10.6445C12.9541 10.6445 13.7952 11.4447 13.7952 12.5162ZM15.7952 12.5162C15.7952 14.6545 14.0961 16.3879 12.0001 16.3879C9.90417 16.3879 8.20504 14.6545 8.20504 12.5162C8.20504 10.3779 9.90417 8.64453 12.0001 8.64453C14.0961 8.64453 15.7952 10.3779 15.7952 12.5162Z" fill="#999999"/>
</svg>
