<svg width="24" height="24" viewBox="0 0 24 24" fill="none" xmlns="http://www.w3.org/2000/svg">
<path fill-rule="evenodd" clip-rule="evenodd" d="M4 4H20V20H4V4ZM2 4C2 2.89543 2.89543 2 4 2H20C21.1046 2 22 2.89543 22 4V20C22 21.1046 21.1046 22 20 22H4C2.89543 22 2 21.1046 2 20V4ZM17.8944 7.44743C18.1414 6.95345 17.9412 6.35278 17.4472 6.10579C16.9532 5.8588 16.3526 6.05903 16.1056 6.55301L11.726 15.3121L7.70711 11.2931C7.31658 10.9026 6.68342 10.9026 6.29289 11.2931C5.90237 11.6836 5.90237 12.3168 6.29289 12.7073L11.2929 17.7073C11.5202 17.9346 11.8429 18.0388 12.1602 17.9873C12.4775 17.9358 12.7507 17.7349 12.8944 17.4474L17.8944 7.44743Z" fill="#0A2D6D"/>
</svg>
