<svg width="25" height="24" viewBox="0 0 25 24" fill="none" xmlns="http://www.w3.org/2000/svg">
<path fill-rule="evenodd" clip-rule="evenodd" d="M8.75 4.5H16.25V3.25C16.25 2.55964 16.8096 2 17.5 2C18.1904 2 18.75 2.55964 18.75 3.25V4.5H20.5C21.6046 4.5 22.5 5.39543 22.5 6.5V8V10V20C22.5 21.1046 21.6046 22 20.5 22H4.5C3.39543 22 2.5 21.1046 2.5 20V10V8V6.5C2.5 5.39543 3.39543 4.5 4.5 4.5H6.25V3.25C6.25 2.55964 6.80964 2 7.5 2C8.19036 2 8.75 2.55964 8.75 3.25V4.5ZM4.5 10V20H20.5V10H4.5ZM20.5 8H4.5V6.5H20.5V8ZM11.25 13.25C11.25 12.5596 11.8096 12 12.5 12C13.1904 12 13.75 12.5596 13.75 13.25C13.75 13.9404 13.1904 14.5 12.5 14.5C11.8096 14.5 11.25 13.9404 11.25 13.25ZM16.25 12C15.5596 12 15 12.5596 15 13.25C15 13.9404 15.5596 14.5 16.25 14.5C16.9404 14.5 17.5 13.9404 17.5 13.25C17.5 12.5596 16.9404 12 16.25 12ZM7.5 13.25C7.5 12.5596 8.05964 12 8.75 12C9.44036 12 10 12.5596 10 13.25C10 13.9404 9.44036 14.5 8.75 14.5C8.05964 14.5 7.5 13.9404 7.5 13.25ZM12.5 15.75C11.8096 15.75 11.25 16.3096 11.25 17C11.25 17.6904 11.8096 18.25 12.5 18.25C13.1904 18.25 13.75 17.6904 13.75 17C13.75 16.3096 13.1904 15.75 12.5 15.75ZM15 17C15 16.3096 15.5596 15.75 16.25 15.75C16.9404 15.75 17.5 16.3096 17.5 17C17.5 17.6904 16.9404 18.25 16.25 18.25C15.5596 18.25 15 17.6904 15 17ZM8.75 15.75C8.05964 15.75 7.5 16.3096 7.5 17C7.5 17.6904 8.05964 18.25 8.75 18.25C9.44036 18.25 10 17.6904 10 17C10 16.3096 9.44036 15.75 8.75 15.75Z" fill="#999999"/>
</svg>
