<svg width="24" height="24" viewBox="0 0 24 24" fill="none" xmlns="http://www.w3.org/2000/svg">
<path fill-rule="evenodd" clip-rule="evenodd" d="M19.892 21.6907C20.2777 22.0942 20.9204 22.0996 21.3128 21.7027C21.6897 21.3214 21.6948 20.7095 21.3244 20.3219L4.10856 2.30623C3.72294 1.90269 3.08023 1.89726 2.68784 2.29422C2.31094 2.6755 2.30577 3.28744 2.67616 3.67504L5.79733 6.94119C4.17372 8.20229 2.95085 9.84155 2.1287 11.859C1.9571 12.28 1.9571 12.7516 2.1287 13.1727C2.96507 15.225 4.21616 16.886 5.88196 18.1556C7.72201 19.558 9.7614 20.2592 12.0001 20.2592C13.8525 20.2592 15.5684 19.7792 17.1479 18.819L19.892 21.6907ZM15.7038 17.3078L14.165 15.6976C13.551 16.1334 12.8048 16.3889 12.0001 16.3889C9.90417 16.3889 8.20504 14.6555 8.20504 12.5172C8.20504 11.661 8.47749 10.8697 8.93876 10.2286L7.19068 8.39927C5.98646 9.25861 5.01976 10.3665 4.29059 11.723C4.02447 12.2181 4.02447 12.8136 4.29059 13.3086C5.02718 14.6789 6.00615 15.7956 7.2275 16.6585C8.67654 17.6824 10.2674 18.1943 12.0001 18.1943C13.3165 18.1943 14.5511 17.8988 15.7038 17.3078ZM10.3709 11.7273C10.265 11.9645 10.205 12.2312 10.205 12.5172C10.205 13.5888 11.0462 14.3889 12.0001 14.3889C12.2638 14.3889 12.5188 14.3278 12.7499 14.2167L10.3709 11.7273ZM21.8715 13.1727C21.3006 14.5737 20.5364 15.7923 19.579 16.8286L18.2144 15.404C18.7915 14.7879 19.2899 14.0895 19.7097 13.3086C19.9758 12.8136 19.9758 12.2181 19.7097 11.723C18.9731 10.3527 17.9941 9.2361 16.7728 8.37313C15.3237 7.34928 13.7328 6.83736 12.0001 6.83736C11.3809 6.83736 10.7799 6.90273 10.1969 7.03347L8.60016 5.36643C9.6772 4.97045 10.8105 4.77245 12.0001 4.77245C14.2389 4.77245 16.2782 5.47366 18.1183 6.87607C19.7841 8.14568 21.0352 9.80664 21.8715 11.859C22.0431 12.28 22.0431 12.7516 21.8715 13.1727ZM15.7952 12.5172C15.7952 12.6336 15.7902 12.7489 15.7803 12.8627L11.7489 8.65385C11.832 8.64831 11.9157 8.6455 12.0001 8.6455C14.0961 8.6455 15.7952 10.3789 15.7952 12.5172Z" fill="#999999"/>
</svg>
