<svg width="31" height="24" viewBox="0 0 31 24" fill="none" xmlns="http://www.w3.org/2000/svg">
<path fill-rule="evenodd" clip-rule="evenodd" d="M23.75 2H10.7502H10.7498H10.7206L10.7201 2.00044C10.4742 2.00775 10.2306 2.10523 10.0429 2.29289L6.04289 6.29289C5.85523 6.48056 5.75775 6.72425 5.75044 6.97012L5.75 6.97056V6.99983V7.00017V20C5.75 21.1046 6.64543 22 7.75 22H23.75C24.8546 22 25.75 21.1046 25.75 20V4C25.75 2.89543 24.8546 2 23.75 2ZM7.75 20V7.41421L11.1642 4H23.75V20H7.75ZM16.75 16C16.75 16.5523 16.3023 17 15.75 17C15.1977 17 14.75 16.5523 14.75 16C14.75 15.4477 15.1977 15 15.75 15C16.3023 15 16.75 15.4477 16.75 16ZM18.75 16C18.75 17.6569 17.4069 19 15.75 19C14.0931 19 12.75 17.6569 12.75 16C12.75 14.3431 14.0931 13 15.75 13C17.4069 13 18.75 14.3431 18.75 16ZM12.75 8H11.75V10H12.75V8ZM14.75 8H19.75V10H14.75V8ZM11.75 6C10.6454 6 9.75 6.89543 9.75 8V10C9.75 11.1046 10.6454 12 11.75 12H19.75C20.8546 12 21.75 11.1046 21.75 10V8C21.75 6.89543 20.8546 6 19.75 6H11.75Z" fill="#767676"/>
</svg>
