<svg width="24" height="24" viewBox="0 0 24 24" fill="none" xmlns="http://www.w3.org/2000/svg">
<path fill-rule="evenodd" clip-rule="evenodd" d="M4.07872 21.3072C3.69612 21.6898 3.0758 21.6898 2.6932 21.3072C2.3106 20.9246 2.3106 20.3043 2.6932 19.9217L10.6149 12L2.6932 4.07823C2.3106 3.69563 2.3106 3.07531 2.6932 2.69271C3.0758 2.31011 3.69612 2.31011 4.07872 2.69271L12.0004 10.6144L19.9222 2.69271C20.3048 2.31011 20.9251 2.31011 21.3077 2.69271C21.6903 3.07531 21.6903 3.69563 21.3077 4.07823L13.386 12L21.3077 19.9217C21.6903 20.3043 21.6903 20.9246 21.3077 21.3072C20.9251 21.6898 20.3048 21.6898 19.9222 21.3072L12.0004 13.3855L4.07872 21.3072Z" fill="#505050"/>
</svg>
